HIERARCHY
ROOT Hips
{
	OFFSET 0.000000 96.790665 0.000000
	CHANNELS 6 Xposition Yposition Zposition Xrotation Yrotation Zrotation 
	JOINT Spine
	{
		OFFSET 0.000000 11.752701 -0.535200
		CHANNELS 3 Xrotation Yrotation Zrotation
		JOINT Spine1
		{
			OFFSET 0.000000 9.793854 -0.445987
			CHANNELS 3 Xrotation Yrotation Zrotation
			JOINT Spine1_split
			{
				OFFSET 0.000000 9.793854 -0.445987
				CHANNELS 3 Xrotation Yrotation Zrotation
				JOINT Spine2
				{
					OFFSET 0.000000 9.793854 -0.445987
					CHANNELS 3 Xrotation Yrotation Zrotation
					JOINT Neck
					{
						OFFSET 0.000000 17.628937 -0.802776
						CHANNELS 3 Xrotation Yrotation Zrotation
						JOINT Head
						{
							OFFSET 0.000000 5.016602 1.880200
							CHANNELS 3 Xrotation Yrotation Zrotation
							JOINT HeadTop_End
							{
								OFFSET 0.000000 20.743408 7.774600
								CHANNELS 3 Xrotation Yrotation Zrotation
								End Site
								{
									OFFSET 0.000000 0.000000 0.000000
								}
							}
						}
					}
					JOINT LeftShoulder
					{
						OFFSET 3.924850 7.377754 -0.393173
						CHANNELS 3 Xrotation Yrotation Zrotation
						JOINT LeftShoulder_split
						{
							OFFSET 3.924850 7.377754 -0.393173
							CHANNELS 3 Xrotation Yrotation Zrotation
							JOINT LeftArm
							{
								OFFSET 15.636079 -5.611938 0.032868
								CHANNELS 3 Xrotation Yrotation Zrotation
								JOINT LeftForeArm
								{
									OFFSET 22.575607 0.000000 -0.000000
									CHANNELS 3 Xrotation Yrotation Zrotation
									JOINT LeftHand
									{
										OFFSET 23.494789 0.000000 -0.000001
										CHANNELS 3 Xrotation Yrotation Zrotation
										JOINT LeftHandThumb1
										{
											OFFSET 3.226456 -1.228531 2.654899
											CHANNELS 3 Xrotation Yrotation Zrotation
											JOINT LeftHandThumb2
											{
												OFFSET 2.698822 -1.558167 1.558164
												CHANNELS 3 Xrotation Yrotation Zrotation
												JOINT LeftHandThumb3
												{
													OFFSET 2.640388 -1.524429 1.524428
													CHANNELS 3 Xrotation Yrotation Zrotation
													JOINT LeftHandThumb4
													{
														OFFSET 2.346039 -1.354492 1.354488
														CHANNELS 3 Xrotation Yrotation Zrotation
														End Site
														{
															OFFSET 0.000000 0.000000 0.000000
														}
													}
												}
											}
										}
										JOINT LeftHandIndex1
										{
											OFFSET 10.149338 -0.349152 2.573102
											CHANNELS 3 Xrotation Yrotation Zrotation
											JOINT LeftHandIndex2
											{
												OFFSET 3.319489 0.000000 -0.000000
												CHANNELS 3 Xrotation Yrotation Zrotation
												JOINT LeftHandIndex3
												{
													OFFSET 3.068123 0.000000 -0.000000
													CHANNELS 3 Xrotation Yrotation Zrotation
													JOINT LeftHandIndex4
													{
														OFFSET 2.664124 0.000000 -0.000000
														CHANNELS 3 Xrotation Yrotation Zrotation
														End Site
														{
															OFFSET 0.000000 0.000000 0.000000
														}
													}
												}
											}
										}
										JOINT LeftHandMiddle1
										{
											OFFSET 10.136444 0.000000 -0.000000
											CHANNELS 3 Xrotation Yrotation Zrotation
											JOINT LeftHandMiddle2
											{
												OFFSET 3.520729 0.000000 -0.000000
												CHANNELS 3 Xrotation Yrotation Zrotation
												JOINT LeftHandMiddle3
												{
													OFFSET 3.274651 0.000000 -0.000000
													CHANNELS 3 Xrotation Yrotation Zrotation
													JOINT LeftHandMiddle4
													{
														OFFSET 2.918007 0.000000 -0.000000
														CHANNELS 3 Xrotation Yrotation Zrotation
														End Site
														{
															OFFSET 0.000000 0.000000 0.000000
														}
													}
												}
											}
										}
										JOINT LeftHandRing1
										{
											OFFSET 10.015709 -0.081619 -2.141669
											CHANNELS 3 Xrotation Yrotation Zrotation
											JOINT LeftHandRing2
											{
												OFFSET 2.742317 0.000000 0.000000
												CHANNELS 3 Xrotation Yrotation Zrotation
												JOINT LeftHandRing3
												{
													OFFSET 2.844040 0.000000 0.000000
													CHANNELS 3 Xrotation Yrotation Zrotation
													JOINT LeftHandRing4
													{
														OFFSET 2.134438 0.000000 0.000000
														CHANNELS 3 Xrotation Yrotation Zrotation
														End Site
														{
															OFFSET 0.000000 0.000000 0.000000
														}
													}
												}
											}
										}
										JOINT LeftHandPinky1
										{
											OFFSET 8.705978 -0.316788 -4.359827
											CHANNELS 3 Xrotation Yrotation Zrotation
											JOINT LeftHandPinky2
											{
												OFFSET 2.641701 0.000000 0.000000
												CHANNELS 3 Xrotation Yrotation Zrotation
												JOINT LeftHandPinky3
												{
													OFFSET 2.201149 0.000000 0.000000
													CHANNELS 3 Xrotation Yrotation Zrotation
													JOINT LeftHandPinky4
													{
														OFFSET 1.796135 0.000000 0.000000
														CHANNELS 3 Xrotation Yrotation Zrotation
														End Site
														{
															OFFSET 0.000000 0.000000 0.000000
														}
													}
												}
											}
										}
									}
								}
							}
						}
					}
					JOINT RightShoulder
					{
						OFFSET -3.924850 7.377754 -0.409590
						CHANNELS 3 Xrotation Yrotation Zrotation
						JOINT RightShoulder_split
						{
							OFFSET -3.924850 7.377754 -0.409590
							CHANNELS 3 Xrotation Yrotation Zrotation
							JOINT RightArm
							{
								OFFSET -15.636075 -5.611954 -0.032881
								CHANNELS 3 Xrotation Yrotation Zrotation
								JOINT RightForeArm
								{
									OFFSET -22.570602 0.000000 0.000001
									CHANNELS 3 Xrotation Yrotation Zrotation
									JOINT RightHand
									{
										OFFSET -23.493404 0.000000 0.000001
										CHANNELS 3 Xrotation Yrotation Zrotation
										JOINT RightHandThumb1
										{
											OFFSET -3.430145 -1.490677 2.732846
											CHANNELS 3 Xrotation Yrotation Zrotation
											JOINT RightHandThumb2
											{
												OFFSET -2.870445 -1.657257 1.657251
												CHANNELS 3 Xrotation Yrotation Zrotation
												JOINT RightHandThumb3
												{
													OFFSET -2.534035 -1.463028 1.463024
													CHANNELS 3 Xrotation Yrotation Zrotation
													JOINT RightHandThumb4
													{
														OFFSET -1.987206 -1.147308 1.147314
														CHANNELS 3 Xrotation Yrotation Zrotation
														End Site
														{
															OFFSET 0.000000 0.000000 0.000000
														}
													}
												}
											}
										}
										JOINT RightHandIndex1
										{
											OFFSET -10.580772 -0.429199 2.789807
											CHANNELS 3 Xrotation Yrotation Zrotation
											JOINT RightHandIndex2
											{
												OFFSET -3.088730 0.000000 0.000000
												CHANNELS 3 Xrotation Yrotation Zrotation
												JOINT RightHandIndex3
												{
													OFFSET -2.968605 0.000000 0.000000
													CHANNELS 3 Xrotation Yrotation Zrotation
													JOINT RightHandIndex4
													{
														OFFSET -2.463318 0.000000 0.000000
														CHANNELS 3 Xrotation Yrotation Zrotation
														End Site
														{
															OFFSET 0.000000 0.000000 0.000000
														}
													}
												}
											}
										}
										JOINT RightHandMiddle1
										{
											OFFSET -10.255600 0.000000 0.000000
											CHANNELS 3 Xrotation Yrotation Zrotation
											JOINT RightHandMiddle2
											{
												OFFSET -3.480217 0.000000 0.000000
												CHANNELS 3 Xrotation Yrotation Zrotation
												JOINT RightHandMiddle3
												{
													OFFSET -3.263023 0.000000 0.000000
													CHANNELS 3 Xrotation Yrotation Zrotation
													JOINT RightHandMiddle4
													{
														OFFSET -2.908302 0.000000 0.000000
														CHANNELS 3 Xrotation Yrotation Zrotation
														End Site
														{
															OFFSET 0.000000 0.000000 0.000000
														}
													}
												}
											}
										}
										JOINT RightHandRing1
										{
											OFFSET -10.230232 -0.198181 -2.204008
											CHANNELS 3 Xrotation Yrotation Zrotation
											JOINT RightHandRing2
											{
												OFFSET -2.884499 0.000000 0.000000
												CHANNELS 3 Xrotation Yrotation Zrotation
												JOINT RightHandRing3
												{
													OFFSET -2.646408 0.000000 0.000000
													CHANNELS 3 Xrotation Yrotation Zrotation
													JOINT RightHandRing4
													{
														OFFSET -2.253517 0.000000 0.000000
														CHANNELS 3 Xrotation Yrotation Zrotation
														End Site
														{
															OFFSET 0.000000 0.000000 0.000000
														}
													}
												}
											}
										}
										JOINT RightHandPinky1
										{
											OFFSET -8.863297 -0.363922 -4.365403
											CHANNELS 3 Xrotation Yrotation Zrotation
											JOINT RightHandPinky2
											{
												OFFSET -2.535202 0.000000 0.000000
												CHANNELS 3 Xrotation Yrotation Zrotation
												JOINT RightHandPinky3
												{
													OFFSET -2.269936 0.000000 0.000000
													CHANNELS 3 Xrotation Yrotation Zrotation
													JOINT RightHandPinky4
													{
														OFFSET -1.728821 0.000000 0.000000
														CHANNELS 3 Xrotation Yrotation Zrotation
														End Site
														{
															OFFSET 0.000000 0.000000 0.000000
														}
													}
												}
											}
										}
									}
								}
							}
						}
					}
				}
			}
		}
	}
	JOINT LeftUpLeg
	{
		OFFSET 9.840400 -6.511497 0.952000
		CHANNELS 3 Xrotation Yrotation Zrotation
		JOINT LeftLeg
		{
			OFFSET 0.627035 -41.050404 -3.190753
			CHANNELS 3 Xrotation Yrotation Zrotation
			JOINT LeftFoot
			{
				OFFSET -0.627030 -35.319065 0.072882
				CHANNELS 3 Xrotation Yrotation Zrotation
				JOINT LeftToeBase
				{
					OFFSET 1.465637 -12.398554 15.189803
					CHANNELS 3 Xrotation Yrotation Zrotation
					JOINT LeftToe_End
					{
						OFFSET 0.862418 0.262531 7.818803
						CHANNELS 3 Xrotation Yrotation Zrotation
						End Site
						{
							OFFSET 0.000000 0.000000 0.000000
						}
					}
				}
			}
		}
	}
	JOINT RightUpLeg
	{
		OFFSET -9.840400 -6.511497 0.242600
		CHANNELS 3 Xrotation Yrotation Zrotation
		JOINT RightLeg
		{
			OFFSET -0.627002 -41.050419 -2.758945
			CHANNELS 3 Xrotation Yrotation Zrotation
			JOINT RightFoot
			{
				OFFSET 0.627006 -35.319042 0.384006
				CHANNELS 3 Xrotation Yrotation Zrotation
				JOINT RightToeBase
				{
					OFFSET -1.465701 -12.398558 15.694283
					CHANNELS 3 Xrotation Yrotation Zrotation
					JOINT RightToe_End
					{
						OFFSET -0.862436 0.262525 7.962027
						CHANNELS 3 Xrotation Yrotation Zrotation
						End Site
						{
							OFFSET 0.000000 0.000000 0.000000
						}
					}
				}
			}
		}
	}
}
MOTION
Frames: 4
Frame Time: 0.016667
0.173390 96.258156 -0.813087 -3.750057 -5.239057 -3.251900 3.313405 1.526642 2.228279 1.155680 0.337004 1.565521 0.000000 0.000000 0.000000 1.126250 0.358053 1.563178 5.626589 -0.091246 0.452320 5.621573 -0.107041 0.491953 0.000000 0.000000 -0.000000 1.045142 -17.452279 -12.322864 0.000000 0.000000 0.000000 3.914784 -19.989536 -69.769624 0.000004 -1.459352 0.000015 -33.230421 -1.364796 -6.186613 -0.668502 2.159371 4.844614 11.851382 25.416469 17.057139 -13.813212 3.538600 9.032343 0.000001 0.000007 0.000002 0.019868 -0.969580 -7.593518 0.267861 1.752895 -17.375708 0.057688 0.820959 -8.038010 -0.000000 -0.000000 0.000001 -0.078217 2.658938 -15.697482 0.268780 1.755807 -17.405499 0.300524 1.853976 -18.413329 0.000000 0.000001 0.000002 0.136906 3.641774 -21.133503 0.386618 2.094787 -20.911905 0.283148 1.801017 -17.869004 0.000001 -0.000001 0.000003 0.923209 5.558215 -27.127633 0.268797 1.755849 -17.405880 0.241919 1.667703 -16.505886 0.000000 -0.000001 -0.000001 1.195052 15.341547 14.705334 0.000000 0.000000 0.000000 13.158853 27.555136 58.785157 -0.000019 6.693742 0.000009 -20.189788 -0.512213 6.772433 -1.661713 -0.174254 -4.218883 12.722956 -29.825995 -16.122288 -15.548427 -3.563945 -12.705345 -0.000004 -0.000002 0.000001 0.038221 1.262257 6.823712 0.213721 -1.396040 17.407022 0.046029 -0.653842 8.053233 0.000001 0.000001 0.000000 -0.136224 -2.205112 14.998865 0.214438 -1.398349 17.436884 0.239779 -1.476533 18.446287 -0.000002 0.000001 -0.000001 0.030618 -3.075766 20.451026 0.308442 -1.668281 20.948542 0.225828 -1.434049 17.897088 -0.000000 0.000000 -0.000004 0.748990 -4.885198 26.473777 0.214463 -1.398377 17.437251 0.193002 -1.328183 16.535816 -0.000000 -0.000001 0.000001 -12.373836 14.369268 10.840028 16.775291 2.029054 4.226117 -1.686671 0.775716 -7.963378 -4.928467 -0.000003 0.000007 -0.000000 -0.000002 0.000000 1.693172 -10.321414 3.560181 6.657681 -9.802162 -3.280142 -4.169054 -1.647497 2.922702 -7.277003 -0.000010 -0.000001 0.000001 -0.000002 -0.000000 
0.174871 96.258186 -0.805328 -3.750042 -5.239020 -3.246315 3.313384 1.526627 2.228644 1.155679 0.337002 1.565521 0.000000 0.000000 0.000000 1.126249 0.358054 1.563177 5.626585 -0.091244 0.452320 5.621591 -0.107042 0.491953 -0.000000 -0.000000 0.000000 1.045155 -17.452267 -12.322867 0.000000 0.000000 0.000000 3.903325 -20.004506 -69.774112 0.000013 -1.467245 -0.000010 -33.243849 -1.391587 -6.183079 -0.669518 2.146238 4.841995 11.851346 25.416474 17.057170 -13.813196 3.538587 9.032365 -0.000000 0.000005 0.000003 0.020223 -0.970211 -7.587430 0.267856 1.752893 -17.375725 0.057701 0.820959 -8.038013 0.000001 0.000000 0.000001 -0.078276 2.657897 -15.687584 0.268772 1.755804 -17.405511 0.300557 1.853989 -18.413352 0.000001 0.000000 0.000001 0.136697 3.640845 -21.124344 0.386626 2.094784 -20.911918 0.283156 1.801025 -17.869011 -0.000000 -0.000000 0.000002 0.923211 5.558205 -27.127642 0.268799 1.755846 -17.405880 0.241908 1.667697 -16.505866 0.000000 0.000001 0.000000 1.197443 15.332733 14.704726 0.000000 0.000000 0.000000 13.153160 27.570112 58.780492 0.000019 6.693740 0.000011 -20.191482 -0.502748 6.775878 -1.662106 -0.165886 -4.221863 12.722474 -29.829383 -16.122940 -15.548441 -3.563935 -12.705333 -0.000000 -0.000009 -0.000004 0.033869 1.271151 6.870603 0.215579 -1.402008 17.483973 0.046929 -0.660081 8.130390 0.000000 -0.000002 0.000000 -0.136275 -2.209054 15.045431 0.214434 -1.398349 17.436891 0.239770 -1.476524 18.446268 -0.000001 -0.000001 -0.000001 0.030617 -3.075767 20.451028 0.308440 -1.668284 20.948532 0.225837 -1.434059 17.897082 0.000001 0.000000 -0.000003 0.749993 -4.886713 26.495709 0.215382 -1.401317 17.475030 0.193869 -1.331093 16.573053 0.000001 -0.000000 0.000001 -12.370223 14.370284 10.832123 16.776130 2.029105 4.226089 -1.689797 0.775419 -7.957746 -4.928472 0.000002 0.000006 0.000000 -0.000001 -0.000000 1.666934 -10.321213 3.548427 6.712237 -9.811504 -3.280190 -4.198023 -1.647736 2.930016 -7.277006 -0.000006 -0.000003 0.000001 0.000002 0.000000 
0.176835 96.258240 -0.797297 -3.750024 -5.238978 -3.239896 3.313355 1.526608 2.229108 1.155680 0.337005 1.565521 0.000000 0.000000 0.000000 1.126249 0.358054 1.563176 5.621381 -0.091246 0.452320 5.616355 -0.107043 0.487152 0.000000 -0.000000 -0.000000 1.045145 -17.452272 -12.322855 0.000000 0.000000 0.000000 3.893224 -20.016592 -69.778060 -0.000013 -1.475918 -0.000019 -33.256328 -1.417480 -6.179994 -0.670162 2.137995 4.840383 11.851371 25.416481 17.057142 -13.813209 3.538595 9.032363 -0.000002 0.000003 0.000000 0.021100 -0.971776 -7.572271 0.267872 1.752895 -17.375709 0.057673 0.820949 -8.038011 -0.000000 -0.000000 -0.000000 -0.078362 2.656185 -15.671236 0.268779 1.755803 -17.405511 0.300545 1.853985 -18.413348 0.000000 0.000000 -0.000001 0.136366 3.639340 -21.109434 0.386627 2.094784 -20.911905 0.283146 1.801013 -17.869003 0.000001 0.000001 0.000005 0.922878 5.557687 -27.121675 0.268793 1.755843 -17.405876 0.241906 1.667699 -16.505874 -0.000001 -0.000001 -0.000002 1.199898 15.323722 14.704079 0.000000 0.000000 0.000000 13.148886 27.586618 58.775554 0.000021 6.698266 -0.000008 -20.193591 -0.490849 6.780284 -1.661835 -0.154835 -4.243932 12.720296 -29.844153 -16.125711 -15.548432 -3.563934 -12.705333 -0.000001 -0.000003 0.000002 0.031572 1.276362 6.894390 0.216550 -1.405026 17.522843 0.047355 -0.663245 8.169839 0.000001 -0.000002 -0.000001 -0.136317 -2.211080 15.069409 0.214445 -1.398348 17.436889 0.239768 -1.476527 18.446275 -0.000000 -0.000001 -0.000002 0.030605 -3.075768 20.451017 0.308450 -1.668284 20.948542 0.225837 -1.434053 17.897076 -0.000001 -0.000001 -0.000006 0.752282 -4.891351 26.493216 0.215675 -1.402255 17.487146 0.194168 -1.332083 16.585713 0.000002 0.000002 0.000001 -12.366344 14.371387 10.822975 16.778003 2.029233 4.226058 -1.694005 0.775204 -7.950740 -4.928475 0.000006 0.000006 -0.000000 -0.000001 -0.000000 1.636052 -10.320891 3.534182 6.777136 -9.816578 -3.280247 -4.232651 -1.647941 2.938850 -7.277021 -0.000015 -0.000004 0.000001 -0.000001 -0.000000 
0.179147 96.258507 -0.788835 -3.745771 -5.238950 -3.232286 3.313320 1.526580 2.229642 1.155679 0.337002 1.565521 0.000000 0.000000 0.000000 1.126250 0.358053 1.563177 5.612874 -0.091245 0.446654 5.607868 -0.107043 0.481494 -0.000000 -0.000000 0.000000 1.045149 -17.452276 -12.322855 0.000000 0.000000 0.000000 3.884965 -20.027967 -69.781324 0.000000 -1.485395 0.000015 -33.266115 -1.437361 -6.179338 -0.670583 2.132799 4.838010 11.851369 25.416476 17.057148 -13.813209 3.538596 9.032357 0.000001 0.000006 -0.000001 0.022044 -0.973471 -7.555921 0.267856 1.752892 -17.375716 0.057691 0.820958 -8.038017 -0.000001 -0.000000 -0.000003 -0.078458 2.654436 -15.654636 0.268788 1.755806 -17.405497 0.300520 1.853976 -18.413326 0.000000 0.000000 0.000001 0.135999 3.637751 -21.093712 0.386633 2.094782 -20.911913 0.283155 1.801025 -17.869009 -0.000000 0.000001 0.000002 0.922464 5.557051 -27.114304 0.268793 1.755846 -17.405882 0.241899 1.667687 -16.505878 -0.000000 0.000000 -0.000000 1.202047 15.315808 14.703514 0.000000 0.000000 0.000000 13.145165 27.601406 58.771087 -0.000015 6.703930 0.000014 -20.195935 -0.477637 6.785142 -1.661252 -0.147956 -4.266633 12.718110 -29.859077 -16.128559 -15.548442 -3.563937 -12.705328 -0.000003 -0.000003 -0.000000 0.031805 1.274816 6.893956 0.216915 -1.406207 17.538148 0.047537 -0.664515 8.185578 -0.000000 -0.000000 -0.000000 -0.136310 -2.211374 15.072867 0.214440 -1.398348 17.436882 0.239775 -1.476529 18.446270 -0.000002 0.000002 -0.000001 0.030586 -3.075511 20.447874 0.308618 -1.668754 20.954921 0.225985 -1.434558 17.903691 -0.000001 0.000003 0.000001 0.755046 -4.897224 26.476839 0.215642 -1.402180 17.486155 0.194177 -1.332076 16.585646 0.000000 -0.000001 0.000000 -12.364519 14.372147 10.812630 16.785134 2.029665 4.226052 -1.705215 0.775703 -7.943038 -4.928475 0.000001 0.000004 -0.000000 -0.000002 -0.000000 1.611957 -10.320161 3.519876 6.827382 -9.820357 -3.280269 -4.263429 -1.647863 2.948177 -7.277022 -0.000010 -0.000000 -0.000000 -0.000002 0.000000 
